<svg width="71" height="76" viewBox="0 0 71 76" fill="none" xmlns="http://www.w3.org/2000/svg">
<mask id="path-1-inside-1_81_8" fill="white">
<path d="M71 40H70.9873C70.4566 18.3707 52.7571 1 31 1V0H71V40Z"/>
</mask>
<path d="M71 40H70.9873C70.4566 18.3707 52.7571 1 31 1V0H71V40Z" fill="black" fill-opacity="0.21"/>
<path d="M71 40H70.9873C70.4566 18.3707 52.7571 1 31 1V0H71V40Z" fill="url(#paint0_linear_81_8)" fill-opacity="0.2"/>
<path d="M71 40H70.9873C70.4566 18.3707 52.7571 1 31 1V0H71V40Z" fill="url(#paint1_linear_81_8)" fill-opacity="0.2"/>
<path d="M71 40H70.9873C70.4566 18.3707 52.7571 1 31 1V0H71V40Z" fill="url(#paint2_linear_81_8)" fill-opacity="0.2"/>
<path d="M71 40H70.9873C70.4566 18.3707 52.7571 1 31 1V0H71V40Z" fill="url(#paint3_linear_81_8)" fill-opacity="0.2"/>
<path d="M71 40V40.2H71.2V40H71ZM70.9873 40L70.7874 40.0049L70.7922 40.2H70.9873V40ZM31 1H30.8V1.2H31V1ZM31 0V-0.2H30.8V0H31ZM71 0H71.2V-0.2H71V0ZM71 40V39.8H70.9873V40V40.2H71V40ZM70.9873 40L71.1872 39.9951C70.6539 18.2575 52.8659 0.8 31 0.8V1V1.2C52.6483 1.2 70.2593 18.4838 70.7874 40.0049L70.9873 40ZM31 1H31.2V0H31H30.8V1H31ZM31 0V0.2H71V0V-0.2H31V0ZM71 0H70.8V40H71H71.2V0H71Z" fill="#030303" fill-opacity="0.4" mask="url(#path-1-inside-1_81_8)"/>
<g filter="url(#filter0_dd_81_8)">
<circle cx="33" cy="39" r="23" fill="black" fill-opacity="0.72" shape-rendering="crispEdges"/>
</g>
<defs>
<filter id="filter0_dd_81_8" x="0" y="10" width="66" height="66" filterUnits="userSpaceOnUse" color-interpolation-filters="sRGB">
<feFlood flood-opacity="0" result="BackgroundImageFix"/>
<feColorMatrix in="SourceAlpha" type="matrix" values="0 0 0 0 0 0 0 0 0 0 0 0 0 0 0 0 0 0 127 0" result="hardAlpha"/>
<feOffset/>
<feGaussianBlur stdDeviation="1"/>
<feColorMatrix type="matrix" values="0 0 0 0 0.947917 0 0 0 0 0.937283 0 0 0 0 0.937283 0 0 0 0.46 0"/>
<feBlend mode="normal" in2="BackgroundImageFix" result="effect1_dropShadow_81_8"/>
<feColorMatrix in="SourceAlpha" type="matrix" values="0 0 0 0 0 0 0 0 0 0 0 0 0 0 0 0 0 0 127 0" result="hardAlpha"/>
<feOffset dy="4"/>
<feGaussianBlur stdDeviation="5"/>
<feComposite in2="hardAlpha" operator="out"/>
<feColorMatrix type="matrix" values="0 0 0 0 0 0 0 0 0 0 0 0 0 0 0 0 0 0 0.25 0"/>
<feBlend mode="normal" in2="effect1_dropShadow_81_8" result="effect2_dropShadow_81_8"/>
<feBlend mode="normal" in="SourceGraphic" in2="effect2_dropShadow_81_8" result="shape"/>
</filter>
<linearGradient id="paint0_linear_81_8" x1="71" y1="2.05128" x2="51.5128" y2="16.9231" gradientUnits="userSpaceOnUse">
<stop/>
<stop offset="0.304351" stop-opacity="0.92"/>
<stop offset="0.561041" stop-opacity="0.81"/>
<stop offset="1" stop-opacity="0.68"/>
</linearGradient>
<linearGradient id="paint1_linear_81_8" x1="73.0513" y1="32.8205" x2="38.6923" y2="-6.15385" gradientUnits="userSpaceOnUse">
<stop/>
<stop offset="0.213423" stop-opacity="0.88"/>
<stop offset="0.405189" stop-opacity="0.8"/>
<stop offset="0.594889" stop-opacity="0.77"/>
<stop offset="0.780842" stop-color="#020202" stop-opacity="0.593962"/>
<stop offset="1" stop-color="#030303" stop-opacity="0.48"/>
</linearGradient>
<linearGradient id="paint2_linear_81_8" x1="41.7692" y1="3.96777e-07" x2="58.6923" y2="40" gradientUnits="userSpaceOnUse">
<stop stop-opacity="0.94"/>
<stop offset="0.293591" stop-color="#020202" stop-opacity="0.83"/>
<stop offset="0.574697" stop-color="#020202" stop-opacity="0.78"/>
<stop offset="0.686023" stop-opacity="0.63"/>
<stop offset="1" stop-opacity="0.36"/>
</linearGradient>
<linearGradient id="paint3_linear_81_8" x1="74.5" y1="20" x2="36.641" y2="4.61538" gradientUnits="userSpaceOnUse">
<stop stop-opacity="0.98"/>
<stop offset="0.266109" stop-opacity="0.88"/>
<stop offset="0.494742" stop-color="#040404" stop-opacity="0.69"/>
<stop offset="1" stop-opacity="0.26"/>
</linearGradient>
</defs>
</svg>
